<svg width="263" height="82" viewBox="0 0 263 82" fill="none" xmlns="http://www.w3.org/2000/svg">
<path d="M75.8139 66.0967C63.2883 66.0967 55.2073 56.8035 56.9043 44.5204C58.6013 32.2372 69.4299 22.9441 81.9554 22.9441C90.1172 22.9441 96.4204 26.9846 99.3296 33.2878L92.7032 36.9242C90.8445 32.5605 86.5616 29.6513 80.9857 29.6513C72.5006 29.6513 65.2277 36.0353 64.0964 44.5204C62.965 53.0054 68.2985 59.3894 76.7836 59.3894C82.3595 59.3894 87.5313 56.4803 90.6021 52.1165L96.178 55.753C91.491 62.0562 83.9757 66.0967 75.8139 66.0967ZM139.835 23.9138H147.593L118.42 73.8544C115.592 78.7031 111.147 81.4506 106.703 81.4506C103.47 81.4506 99.834 79.9152 97.8138 77.4909L101.45 72.1574C102.582 73.6928 104.521 74.7434 106.541 74.7434C108.723 74.7434 110.743 73.6928 112.44 71.0261L116.238 64.9653L104.036 23.9138H112.036L121.33 56.8035L139.835 23.9138ZM165.62 66.0967C153.095 66.0967 145.014 56.8035 146.711 44.5204C148.408 32.2372 159.236 22.9441 171.762 22.9441C179.924 22.9441 186.227 26.9846 189.136 33.2878L182.51 36.9242C180.651 32.5605 176.368 29.6513 170.792 29.6513C162.307 29.6513 155.034 36.0353 153.903 44.5204C152.772 53.0054 158.105 59.3894 166.59 59.3894C172.166 59.3894 177.338 56.4803 180.409 52.1165L185.985 55.753C181.298 62.0562 173.782 66.0967 165.62 66.0967ZM193.029 65.127L201.191 6.94366H208.14L199.979 65.127H193.029ZM236.702 22.9441C248.986 22.9441 256.905 32.1564 255.127 44.5204C255.046 45.4901 254.804 46.6214 254.561 47.5912H219.005C219.409 54.7833 224.662 59.7127 232.581 59.7127C238.642 59.7127 244.218 56.8035 247.45 53.0054L251.733 57.1267C246.723 62.6218 239.45 66.0967 231.45 66.0967C218.52 66.0967 210.277 56.7227 211.974 44.3588C213.752 32.1564 224.338 22.9441 236.702 22.9441ZM235.733 29.3281C228.541 29.3281 222.157 34.2575 219.894 41.288H248.177C247.935 34.1767 243.006 29.3281 235.733 29.3281Z" fill="#A84CFF"/>
<path d="M58.5241 15.6694C52.0765 27.4042 46.6546 38.684 37.4208 49.2978C28.187 59.9117 18.3879 68.9691 7.21364 72.2664C16.6601 65.7064 22.543 61.0614 30.3371 49.2978C38.9105 36.358 39.5597 33.7717 44.1043 15.6678L58.5241 15.6694Z" fill="url(#paint0_linear_3021_5219)"/>
<path d="M51.3185 70.7637L16.6298 15.8686L10.265 15.8692L44.6473 70.5987L51.3185 70.7637Z" fill="#A84CFF"/>
<defs>
<linearGradient id="paint0_linear_3021_5219" x1="110.772" y1="17.7765" x2="221.027" y2="-123.87" gradientUnits="userSpaceOnUse">
<stop stop-color="#A84CFF"/>
<stop offset="1" stop-color="#012D8D"/>
</linearGradient>
</defs>
</svg>
